<svg width="15" height="20" viewBox="0 0 15 20" fill="none" xmlns="http://www.w3.org/2000/svg">
<path d="M2.7216 1.2C2.93224 0.835163 3.2352 0.532198 3.60003 0.321554C3.96487 0.110911 4.37872 1.07021e-05 4.8 0H10.2C11.3139 0 12.3822 0.442499 13.1698 1.23015C13.9575 2.0178 14.4 3.08609 14.4 4.2V16.2C14.3999 16.3085 14.3705 16.415 14.3147 16.5081C14.2589 16.6012 14.1789 16.6774 14.0832 16.7286C13.9875 16.7799 13.8797 16.8042 13.7713 16.799C13.6629 16.7938 13.558 16.7593 13.4676 16.6992L13.2 16.5216V4.2C13.2 3.40435 12.8839 2.64129 12.3213 2.07868C11.7587 1.51607 10.9957 1.2 10.2 1.2H2.7216ZM2.4 2.4C1.76348 2.4 1.15303 2.65286 0.702944 3.10294C0.252856 3.55303 0 4.16348 0 4.8V18.6C5.60645e-05 18.7085 0.0295488 18.815 0.0853369 18.9081C0.141125 19.0012 0.221119 19.0774 0.316799 19.1286C0.41248 19.1799 0.520263 19.2042 0.62867 19.199C0.737076 19.1938 0.842046 19.1593 0.9324 19.0992L6 15.7212L11.0676 19.0992C11.158 19.1593 11.2629 19.1938 11.3713 19.199C11.4797 19.2042 11.5875 19.1799 11.6832 19.1286C11.7789 19.0774 11.8589 19.0012 11.9147 18.9081C11.9705 18.815 11.9999 18.7085 12 18.6V4.8C12 4.16348 11.7471 3.55303 11.2971 3.10294C10.847 2.65286 10.2365 2.4 9.6 2.4H2.4ZM1.2 4.8C1.2 4.48174 1.32643 4.17652 1.55147 3.95147C1.77652 3.72643 2.08174 3.6 2.4 3.6H9.6C9.91826 3.6 10.2235 3.72643 10.4485 3.95147C10.6736 4.17652 10.8 4.48174 10.8 4.8V17.4792L6.3324 14.5008C6.23393 14.4353 6.11828 14.4003 6 14.4003C5.88172 14.4003 5.76607 14.4353 5.6676 14.5008L1.2 17.4792V4.8Z" fill="#757575"/>
</svg>
